<mxfile host="Electron" agent="Mozilla/5.0 (Macintosh; Intel Mac OS X 10_15_7) AppleWebKit/537.36 (KHTML, like Gecko) draw.io/26.0.16 Chrome/132.0.6834.196 Electron/34.2.0 Safari/537.36" version="26.0.16">
  <diagram name="第 1 页" id="lWEN_o6NCU4KM6AUGm27">
    <mxGraphModel dx="1593" dy="854" grid="1" gridSize="10" guides="1" tooltips="1" connect="1" arrows="1" fold="1" page="1" pageScale="1" pageWidth="827" pageHeight="1169" math="0" shadow="0">
      <root>
        <mxCell id="0" />
        <mxCell id="1" parent="0" />
        <mxCell id="sy4J3GjQt16E9kHFUE2P-22" style="edgeStyle=orthogonalEdgeStyle;rounded=0;orthogonalLoop=1;jettySize=auto;html=1;exitX=1;exitY=0.5;exitDx=0;exitDy=0;entryX=0.5;entryY=0;entryDx=0;entryDy=0;" parent="1" source="sy4J3GjQt16E9kHFUE2P-1" target="sy4J3GjQt16E9kHFUE2P-3" edge="1">
          <mxGeometry relative="1" as="geometry" />
        </mxCell>
        <mxCell id="sy4J3GjQt16E9kHFUE2P-23" value="拿到Provider的进程实现信息" style="edgeLabel;html=1;align=center;verticalAlign=middle;resizable=0;points=[];" parent="sy4J3GjQt16E9kHFUE2P-22" vertex="1" connectable="0">
          <mxGeometry x="0.5179" y="1" relative="1" as="geometry">
            <mxPoint as="offset" />
          </mxGeometry>
        </mxCell>
        <mxCell id="sy4J3GjQt16E9kHFUE2P-1" value="远程配置中心" style="rounded=0;whiteSpace=wrap;html=1;" parent="1" vertex="1">
          <mxGeometry x="360" y="160" width="120" height="60" as="geometry" />
        </mxCell>
        <mxCell id="sy4J3GjQt16E9kHFUE2P-4" style="edgeStyle=orthogonalEdgeStyle;rounded=0;orthogonalLoop=1;jettySize=auto;html=1;exitX=0.5;exitY=0;exitDx=0;exitDy=0;entryX=0;entryY=0.5;entryDx=0;entryDy=0;" parent="1" source="sy4J3GjQt16E9kHFUE2P-2" target="sy4J3GjQt16E9kHFUE2P-1" edge="1">
          <mxGeometry relative="1" as="geometry" />
        </mxCell>
        <mxCell id="sy4J3GjQt16E9kHFUE2P-5" value="注册进程的实现信息" style="edgeLabel;html=1;align=center;verticalAlign=middle;resizable=0;points=[];" parent="sy4J3GjQt16E9kHFUE2P-4" vertex="1" connectable="0">
          <mxGeometry x="-0.241" y="-2" relative="1" as="geometry">
            <mxPoint as="offset" />
          </mxGeometry>
        </mxCell>
        <mxCell id="sy4J3GjQt16E9kHFUE2P-27" style="edgeStyle=orthogonalEdgeStyle;rounded=0;orthogonalLoop=1;jettySize=auto;html=1;exitX=1;exitY=0.75;exitDx=0;exitDy=0;entryX=0;entryY=0.25;entryDx=0;entryDy=0;" parent="1" source="sy4J3GjQt16E9kHFUE2P-2" target="sy4J3GjQt16E9kHFUE2P-8" edge="1">
          <mxGeometry relative="1" as="geometry" />
        </mxCell>
        <mxCell id="sy4J3GjQt16E9kHFUE2P-29" value="响应" style="edgeLabel;html=1;align=center;verticalAlign=middle;resizable=0;points=[];" parent="sy4J3GjQt16E9kHFUE2P-27" vertex="1" connectable="0">
          <mxGeometry x="-0.8009" y="-2" relative="1" as="geometry">
            <mxPoint as="offset" />
          </mxGeometry>
        </mxCell>
        <mxCell id="sy4J3GjQt16E9kHFUE2P-2" value="Provider" style="rounded=0;whiteSpace=wrap;html=1;" parent="1" vertex="1">
          <mxGeometry x="150" y="430" width="120" height="60" as="geometry" />
        </mxCell>
        <mxCell id="sy4J3GjQt16E9kHFUE2P-18" style="edgeStyle=orthogonalEdgeStyle;rounded=0;orthogonalLoop=1;jettySize=auto;html=1;exitX=1;exitY=0.5;exitDx=0;exitDy=0;entryX=0.5;entryY=1;entryDx=0;entryDy=0;" parent="1" source="sy4J3GjQt16E9kHFUE2P-3" target="sy4J3GjQt16E9kHFUE2P-8" edge="1">
          <mxGeometry relative="1" as="geometry" />
        </mxCell>
        <mxCell id="sy4J3GjQt16E9kHFUE2P-19" value="为接口生成代理对象" style="edgeLabel;html=1;align=center;verticalAlign=middle;resizable=0;points=[];" parent="sy4J3GjQt16E9kHFUE2P-18" vertex="1" connectable="0">
          <mxGeometry x="-0.2971" y="2" relative="1" as="geometry">
            <mxPoint as="offset" />
          </mxGeometry>
        </mxCell>
        <mxCell id="sy4J3GjQt16E9kHFUE2P-24" style="edgeStyle=orthogonalEdgeStyle;rounded=0;orthogonalLoop=1;jettySize=auto;html=1;exitX=0;exitY=0.5;exitDx=0;exitDy=0;entryX=0.75;entryY=0;entryDx=0;entryDy=0;" parent="1" source="sy4J3GjQt16E9kHFUE2P-3" target="sy4J3GjQt16E9kHFUE2P-8" edge="1">
          <mxGeometry relative="1" as="geometry" />
        </mxCell>
        <mxCell id="sy4J3GjQt16E9kHFUE2P-25" value="Provider信息" style="edgeLabel;html=1;align=center;verticalAlign=middle;resizable=0;points=[];" parent="sy4J3GjQt16E9kHFUE2P-24" vertex="1" connectable="0">
          <mxGeometry x="0.1109" y="-2" relative="1" as="geometry">
            <mxPoint as="offset" />
          </mxGeometry>
        </mxCell>
        <mxCell id="sy4J3GjQt16E9kHFUE2P-3" value="Consumer" style="rounded=0;whiteSpace=wrap;html=1;" parent="1" vertex="1">
          <mxGeometry x="570" y="430" width="120" height="60" as="geometry" />
        </mxCell>
        <mxCell id="sy4J3GjQt16E9kHFUE2P-26" style="edgeStyle=orthogonalEdgeStyle;rounded=0;orthogonalLoop=1;jettySize=auto;html=1;exitX=0.25;exitY=0;exitDx=0;exitDy=0;entryX=1;entryY=0.25;entryDx=0;entryDy=0;" parent="1" source="sy4J3GjQt16E9kHFUE2P-8" target="sy4J3GjQt16E9kHFUE2P-2" edge="1">
          <mxGeometry relative="1" as="geometry" />
        </mxCell>
        <mxCell id="sy4J3GjQt16E9kHFUE2P-28" value="请求" style="edgeLabel;html=1;align=center;verticalAlign=middle;resizable=0;points=[];" parent="sy4J3GjQt16E9kHFUE2P-26" vertex="1" connectable="0">
          <mxGeometry x="0.6215" relative="1" as="geometry">
            <mxPoint x="99" y="105" as="offset" />
          </mxGeometry>
        </mxCell>
        <mxCell id="sy4J3GjQt16E9kHFUE2P-8" value="" style="rounded=0;whiteSpace=wrap;html=1;" parent="1" vertex="1">
          <mxGeometry x="390" y="610" width="149" height="105" as="geometry" />
        </mxCell>
        <mxCell id="sy4J3GjQt16E9kHFUE2P-13" style="edgeStyle=orthogonalEdgeStyle;rounded=0;orthogonalLoop=1;jettySize=auto;html=1;exitX=1;exitY=0.5;exitDx=0;exitDy=0;entryX=0.5;entryY=1;entryDx=0;entryDy=0;" parent="1" source="sy4J3GjQt16E9kHFUE2P-10" target="sy4J3GjQt16E9kHFUE2P-3" edge="1">
          <mxGeometry relative="1" as="geometry" />
        </mxCell>
        <mxCell id="sy4J3GjQt16E9kHFUE2P-17" value="包依赖方法引用接口声明" style="edgeLabel;html=1;align=center;verticalAlign=middle;resizable=0;points=[];" parent="sy4J3GjQt16E9kHFUE2P-13" vertex="1" connectable="0">
          <mxGeometry x="-0.4437" y="-3" relative="1" as="geometry">
            <mxPoint x="40" y="-125" as="offset" />
          </mxGeometry>
        </mxCell>
        <mxCell id="sy4J3GjQt16E9kHFUE2P-10" value="方法" style="rounded=0;whiteSpace=wrap;html=1;" parent="1" vertex="1">
          <mxGeometry x="419.5" y="645" width="90" height="35" as="geometry" />
        </mxCell>
        <mxCell id="sy4J3GjQt16E9kHFUE2P-11" value="方法代理" style="text;html=1;align=center;verticalAlign=middle;whiteSpace=wrap;rounded=0;" parent="1" vertex="1">
          <mxGeometry x="360" y="720" width="60" height="30" as="geometry" />
        </mxCell>
        <mxCell id="sy4J3GjQt16E9kHFUE2P-15" style="edgeStyle=orthogonalEdgeStyle;rounded=0;orthogonalLoop=1;jettySize=auto;html=1;exitX=0.5;exitY=1;exitDx=0;exitDy=0;entryX=0;entryY=0.5;entryDx=0;entryDy=0;" parent="1" source="sy4J3GjQt16E9kHFUE2P-2" target="sy4J3GjQt16E9kHFUE2P-10" edge="1">
          <mxGeometry relative="1" as="geometry" />
        </mxCell>
        <mxCell id="sy4J3GjQt16E9kHFUE2P-16" value="包依赖方法暴露接口声明" style="edgeLabel;html=1;align=center;verticalAlign=middle;resizable=0;points=[];" parent="sy4J3GjQt16E9kHFUE2P-15" vertex="1" connectable="0">
          <mxGeometry x="0.0864" relative="1" as="geometry">
            <mxPoint x="-35" y="-17" as="offset" />
          </mxGeometry>
        </mxCell>
        <mxCell id="sy4J3GjQt16E9kHFUE2P-30" value="register" style="rounded=0;whiteSpace=wrap;html=1;" parent="1" vertex="1">
          <mxGeometry x="1401" y="170" width="110" height="30" as="geometry" />
        </mxCell>
        <mxCell id="sy4J3GjQt16E9kHFUE2P-31" value="Registry" style="text;html=1;align=center;verticalAlign=middle;whiteSpace=wrap;rounded=0;" parent="1" vertex="1">
          <mxGeometry x="950" y="230" width="60" height="30" as="geometry" />
        </mxCell>
        <mxCell id="sy4J3GjQt16E9kHFUE2P-32" value="unRegister" style="rounded=0;whiteSpace=wrap;html=1;" parent="1" vertex="1">
          <mxGeometry x="1401" y="200" width="110" height="30" as="geometry" />
        </mxCell>
        <mxCell id="sy4J3GjQt16E9kHFUE2P-33" value="subscribe" style="rounded=0;whiteSpace=wrap;html=1;" parent="1" vertex="1">
          <mxGeometry x="1401" y="230" width="110" height="30" as="geometry" />
        </mxCell>
        <mxCell id="sy4J3GjQt16E9kHFUE2P-34" value="unSubscribe" style="rounded=0;whiteSpace=wrap;html=1;" parent="1" vertex="1">
          <mxGeometry x="1401" y="260" width="110" height="30" as="geometry" />
        </mxCell>
        <mxCell id="sy4J3GjQt16E9kHFUE2P-35" value="lookup" style="rounded=0;whiteSpace=wrap;html=1;" parent="1" vertex="1">
          <mxGeometry x="1401" y="290" width="110" height="30" as="geometry" />
        </mxCell>
        <mxCell id="4ZB0j1Yy_WDYndlhbCBe-1" value="" style="rounded=0;whiteSpace=wrap;html=1;" vertex="1" parent="1">
          <mxGeometry x="1160" y="320" width="600" height="200" as="geometry" />
        </mxCell>
        <mxCell id="4ZB0j1Yy_WDYndlhbCBe-2" value="AbstractRegistry" style="text;html=1;align=center;verticalAlign=middle;whiteSpace=wrap;rounded=0;" vertex="1" parent="1">
          <mxGeometry x="925" y="400" width="110" height="30" as="geometry" />
        </mxCell>
        <mxCell id="4ZB0j1Yy_WDYndlhbCBe-27" style="edgeStyle=orthogonalEdgeStyle;rounded=0;orthogonalLoop=1;jettySize=auto;html=1;exitX=1;exitY=0.5;exitDx=0;exitDy=0;entryX=0;entryY=0.5;entryDx=0;entryDy=0;" edge="1" parent="1" source="4ZB0j1Yy_WDYndlhbCBe-3" target="sy4J3GjQt16E9kHFUE2P-32">
          <mxGeometry relative="1" as="geometry" />
        </mxCell>
        <mxCell id="4ZB0j1Yy_WDYndlhbCBe-28" value="删缓存" style="edgeLabel;html=1;align=center;verticalAlign=middle;resizable=0;points=[];" vertex="1" connectable="0" parent="4ZB0j1Yy_WDYndlhbCBe-27">
          <mxGeometry x="-0.8548" y="-2" relative="1" as="geometry">
            <mxPoint x="23" y="-17" as="offset" />
          </mxGeometry>
        </mxCell>
        <mxCell id="4ZB0j1Yy_WDYndlhbCBe-3" value="registered" style="rounded=0;whiteSpace=wrap;html=1;" vertex="1" parent="1">
          <mxGeometry x="1200" y="350" width="110" height="30" as="geometry" />
        </mxCell>
        <mxCell id="4ZB0j1Yy_WDYndlhbCBe-30" style="edgeStyle=orthogonalEdgeStyle;rounded=0;orthogonalLoop=1;jettySize=auto;html=1;exitX=1;exitY=0.5;exitDx=0;exitDy=0;entryX=1;entryY=0.5;entryDx=0;entryDy=0;" edge="1" parent="1" source="4ZB0j1Yy_WDYndlhbCBe-4" target="sy4J3GjQt16E9kHFUE2P-34">
          <mxGeometry relative="1" as="geometry" />
        </mxCell>
        <mxCell id="4ZB0j1Yy_WDYndlhbCBe-32" value="删缓存" style="edgeLabel;html=1;align=center;verticalAlign=middle;resizable=0;points=[];" vertex="1" connectable="0" parent="4ZB0j1Yy_WDYndlhbCBe-30">
          <mxGeometry x="0.2711" y="-2" relative="1" as="geometry">
            <mxPoint as="offset" />
          </mxGeometry>
        </mxCell>
        <mxCell id="4ZB0j1Yy_WDYndlhbCBe-4" value="subscribed" style="rounded=0;whiteSpace=wrap;html=1;" vertex="1" parent="1">
          <mxGeometry x="1405" y="350" width="110" height="30" as="geometry" />
        </mxCell>
        <mxCell id="4ZB0j1Yy_WDYndlhbCBe-5" value="notified" style="rounded=0;whiteSpace=wrap;html=1;" vertex="1" parent="1">
          <mxGeometry x="1600" y="350" width="110" height="30" as="geometry" />
        </mxCell>
        <mxCell id="4ZB0j1Yy_WDYndlhbCBe-6" value="" style="rounded=0;whiteSpace=wrap;html=1;" vertex="1" parent="1">
          <mxGeometry x="1048" y="520" width="832" height="410" as="geometry" />
        </mxCell>
        <mxCell id="4ZB0j1Yy_WDYndlhbCBe-7" value="FailbackRegistry" style="text;html=1;align=center;verticalAlign=middle;whiteSpace=wrap;rounded=0;" vertex="1" parent="1">
          <mxGeometry x="910" y="715" width="110" height="30" as="geometry" />
        </mxCell>
        <mxCell id="4ZB0j1Yy_WDYndlhbCBe-8" value="retryExecutor" style="rounded=0;whiteSpace=wrap;html=1;" vertex="1" parent="1">
          <mxGeometry x="1200" y="850" width="130" height="40" as="geometry" />
        </mxCell>
        <mxCell id="4ZB0j1Yy_WDYndlhbCBe-16" style="edgeStyle=orthogonalEdgeStyle;rounded=0;orthogonalLoop=1;jettySize=auto;html=1;exitX=0;exitY=0.5;exitDx=0;exitDy=0;entryX=0;entryY=0.5;entryDx=0;entryDy=0;" edge="1" parent="1" source="4ZB0j1Yy_WDYndlhbCBe-9" target="4ZB0j1Yy_WDYndlhbCBe-8">
          <mxGeometry relative="1" as="geometry" />
        </mxCell>
        <mxCell id="4ZB0j1Yy_WDYndlhbCBe-9" value="failedRegistered" style="rounded=0;whiteSpace=wrap;html=1;" vertex="1" parent="1">
          <mxGeometry x="1111" y="570" width="130" height="40" as="geometry" />
        </mxCell>
        <mxCell id="4ZB0j1Yy_WDYndlhbCBe-19" style="edgeStyle=orthogonalEdgeStyle;rounded=0;orthogonalLoop=1;jettySize=auto;html=1;exitX=1;exitY=0.5;exitDx=0;exitDy=0;entryX=1;entryY=0.5;entryDx=0;entryDy=0;" edge="1" parent="1" source="4ZB0j1Yy_WDYndlhbCBe-10" target="4ZB0j1Yy_WDYndlhbCBe-8">
          <mxGeometry relative="1" as="geometry" />
        </mxCell>
        <mxCell id="4ZB0j1Yy_WDYndlhbCBe-10" value="failedUnregistered" style="rounded=0;whiteSpace=wrap;html=1;" vertex="1" parent="1">
          <mxGeometry x="1300" y="570" width="130" height="40" as="geometry" />
        </mxCell>
        <mxCell id="4ZB0j1Yy_WDYndlhbCBe-17" style="edgeStyle=orthogonalEdgeStyle;rounded=0;orthogonalLoop=1;jettySize=auto;html=1;exitX=0;exitY=0.5;exitDx=0;exitDy=0;entryX=0;entryY=0.5;entryDx=0;entryDy=0;" edge="1" parent="1" source="4ZB0j1Yy_WDYndlhbCBe-12" target="4ZB0j1Yy_WDYndlhbCBe-8">
          <mxGeometry relative="1" as="geometry" />
        </mxCell>
        <mxCell id="4ZB0j1Yy_WDYndlhbCBe-12" value="failedSubscribed" style="rounded=0;whiteSpace=wrap;html=1;" vertex="1" parent="1">
          <mxGeometry x="1111" y="640" width="130" height="40" as="geometry" />
        </mxCell>
        <mxCell id="4ZB0j1Yy_WDYndlhbCBe-20" style="edgeStyle=orthogonalEdgeStyle;rounded=0;orthogonalLoop=1;jettySize=auto;html=1;exitX=1;exitY=0.5;exitDx=0;exitDy=0;entryX=1;entryY=0.5;entryDx=0;entryDy=0;" edge="1" parent="1" source="4ZB0j1Yy_WDYndlhbCBe-14" target="4ZB0j1Yy_WDYndlhbCBe-8">
          <mxGeometry relative="1" as="geometry" />
        </mxCell>
        <mxCell id="4ZB0j1Yy_WDYndlhbCBe-14" value="failedUnsubscribed" style="rounded=0;whiteSpace=wrap;html=1;" vertex="1" parent="1">
          <mxGeometry x="1300" y="640" width="130" height="40" as="geometry" />
        </mxCell>
        <mxCell id="4ZB0j1Yy_WDYndlhbCBe-18" style="edgeStyle=orthogonalEdgeStyle;rounded=0;orthogonalLoop=1;jettySize=auto;html=1;exitX=0;exitY=0.5;exitDx=0;exitDy=0;entryX=0;entryY=0.5;entryDx=0;entryDy=0;" edge="1" parent="1" source="4ZB0j1Yy_WDYndlhbCBe-15" target="4ZB0j1Yy_WDYndlhbCBe-8">
          <mxGeometry relative="1" as="geometry" />
        </mxCell>
        <mxCell id="4ZB0j1Yy_WDYndlhbCBe-15" value="failedNotified" style="rounded=0;whiteSpace=wrap;html=1;" vertex="1" parent="1">
          <mxGeometry x="1111" y="720" width="130" height="40" as="geometry" />
        </mxCell>
        <mxCell id="4ZB0j1Yy_WDYndlhbCBe-21" value="zk" style="rounded=0;whiteSpace=wrap;html=1;" vertex="1" parent="1">
          <mxGeometry x="1048" y="930" width="832" height="60" as="geometry" />
        </mxCell>
        <mxCell id="4ZB0j1Yy_WDYndlhbCBe-22" value="实现" style="text;html=1;align=center;verticalAlign=middle;whiteSpace=wrap;rounded=0;" vertex="1" parent="1">
          <mxGeometry x="925" y="945" width="110" height="30" as="geometry" />
        </mxCell>
        <mxCell id="4ZB0j1Yy_WDYndlhbCBe-24" style="edgeStyle=orthogonalEdgeStyle;rounded=0;orthogonalLoop=1;jettySize=auto;html=1;exitX=0;exitY=0.5;exitDx=0;exitDy=0;entryX=0;entryY=0.5;entryDx=0;entryDy=0;" edge="1" parent="1" source="sy4J3GjQt16E9kHFUE2P-30" target="4ZB0j1Yy_WDYndlhbCBe-3">
          <mxGeometry relative="1" as="geometry" />
        </mxCell>
        <mxCell id="4ZB0j1Yy_WDYndlhbCBe-25" value="写缓存" style="edgeLabel;html=1;align=center;verticalAlign=middle;resizable=0;points=[];" vertex="1" connectable="0" parent="4ZB0j1Yy_WDYndlhbCBe-24">
          <mxGeometry x="-0.5837" y="1" relative="1" as="geometry">
            <mxPoint as="offset" />
          </mxGeometry>
        </mxCell>
        <mxCell id="4ZB0j1Yy_WDYndlhbCBe-29" style="edgeStyle=orthogonalEdgeStyle;rounded=0;orthogonalLoop=1;jettySize=auto;html=1;exitX=0;exitY=0.5;exitDx=0;exitDy=0;entryX=0;entryY=0.5;entryDx=0;entryDy=0;" edge="1" parent="1" source="sy4J3GjQt16E9kHFUE2P-33" target="4ZB0j1Yy_WDYndlhbCBe-4">
          <mxGeometry relative="1" as="geometry" />
        </mxCell>
        <mxCell id="4ZB0j1Yy_WDYndlhbCBe-31" value="写缓存" style="edgeLabel;html=1;align=center;verticalAlign=middle;resizable=0;points=[];" vertex="1" connectable="0" parent="4ZB0j1Yy_WDYndlhbCBe-29">
          <mxGeometry x="-0.1687" y="-1" relative="1" as="geometry">
            <mxPoint as="offset" />
          </mxGeometry>
        </mxCell>
        <mxCell id="4ZB0j1Yy_WDYndlhbCBe-33" style="edgeStyle=orthogonalEdgeStyle;rounded=0;orthogonalLoop=1;jettySize=auto;html=1;exitX=0;exitY=0.5;exitDx=0;exitDy=0;fillColor=#f8cecc;strokeColor=#b85450;" edge="1" parent="1" source="sy4J3GjQt16E9kHFUE2P-30" target="4ZB0j1Yy_WDYndlhbCBe-9">
          <mxGeometry relative="1" as="geometry">
            <Array as="points">
              <mxPoint x="1070" y="185" />
              <mxPoint x="1070" y="590" />
            </Array>
          </mxGeometry>
        </mxCell>
        <mxCell id="4ZB0j1Yy_WDYndlhbCBe-34" value="失败缓存" style="edgeLabel;html=1;align=center;verticalAlign=middle;resizable=0;points=[];" vertex="1" connectable="0" parent="4ZB0j1Yy_WDYndlhbCBe-33">
          <mxGeometry x="0.272" y="1" relative="1" as="geometry">
            <mxPoint as="offset" />
          </mxGeometry>
        </mxCell>
        <mxCell id="4ZB0j1Yy_WDYndlhbCBe-36" style="edgeStyle=orthogonalEdgeStyle;rounded=0;orthogonalLoop=1;jettySize=auto;html=1;exitX=1;exitY=0.5;exitDx=0;exitDy=0;fillColor=#f8cecc;strokeColor=#b85450;" edge="1" parent="1" source="sy4J3GjQt16E9kHFUE2P-32" target="4ZB0j1Yy_WDYndlhbCBe-10">
          <mxGeometry relative="1" as="geometry">
            <Array as="points">
              <mxPoint x="1790" y="215" />
              <mxPoint x="1790" y="460" />
              <mxPoint x="1365" y="460" />
            </Array>
          </mxGeometry>
        </mxCell>
        <mxCell id="4ZB0j1Yy_WDYndlhbCBe-37" style="edgeStyle=orthogonalEdgeStyle;rounded=0;orthogonalLoop=1;jettySize=auto;html=1;exitX=1;exitY=0.5;exitDx=0;exitDy=0;entryX=1;entryY=0.5;entryDx=0;entryDy=0;fillColor=#f8cecc;strokeColor=#b85450;" edge="1" parent="1" source="sy4J3GjQt16E9kHFUE2P-33" target="4ZB0j1Yy_WDYndlhbCBe-12">
          <mxGeometry relative="1" as="geometry">
            <Array as="points">
              <mxPoint x="1550" y="245" />
              <mxPoint x="1550" y="430" />
              <mxPoint x="1280" y="430" />
              <mxPoint x="1280" y="660" />
            </Array>
          </mxGeometry>
        </mxCell>
        <mxCell id="4ZB0j1Yy_WDYndlhbCBe-38" style="edgeStyle=orthogonalEdgeStyle;rounded=0;orthogonalLoop=1;jettySize=auto;html=1;exitX=1;exitY=0.5;exitDx=0;exitDy=0;fillColor=#f8cecc;strokeColor=#b85450;" edge="1" parent="1" source="sy4J3GjQt16E9kHFUE2P-34" target="4ZB0j1Yy_WDYndlhbCBe-14">
          <mxGeometry relative="1" as="geometry">
            <Array as="points">
              <mxPoint x="1580" y="275" />
              <mxPoint x="1580" y="480" />
              <mxPoint x="1530" y="480" />
              <mxPoint x="1530" y="620" />
              <mxPoint x="1365" y="620" />
            </Array>
          </mxGeometry>
        </mxCell>
      </root>
    </mxGraphModel>
  </diagram>
</mxfile>
